<svg version="1.1" xmlns="http://www.w3.org/2000/svg" xmlns:xlink="http://www.w3.org/1999/xlink" width="89" height="119.3955" viewBox="0,0,89,119.3955"><g transform="translate(-195.5,-116.6315)"><g data-paper-data="{&quot;isPaintingLayer&quot;:true}" fill-rule="nonzero" stroke="none" stroke-linecap="butt" stroke-linejoin="miter" stroke-miterlimit="10" stroke-dasharray="" stroke-dashoffset="0" style="mix-blend-mode: normal"><path d="M198.5,180c0,-22.91982 18.58018,-41.5 41.5,-41.5c22.91982,0 41.5,18.58018 41.5,41.5c0,22.91982 -18.58018,41.5 -41.5,41.5c-22.91982,0 -41.5,-18.58018 -41.5,-41.5z" fill="#757575" stroke-width="0"/><path d="M195.5,180c0,-24.57667 19.92333,-44.5 44.5,-44.5c24.57667,0 44.5,19.92333 44.5,44.5c0,24.57667 -19.92333,44.5 -44.5,44.5c-24.57667,0 -44.5,-19.92333 -44.5,-44.5z" fill="none" stroke-width="0"/><text transform="translate(224.90501,209.37622) scale(2.13206,2.13206)" font-size="40" xml:space="preserve" fill="#ffffff" fill-rule="nonzero" stroke="none" stroke-width="1" stroke-linecap="butt" stroke-linejoin="miter" stroke-miterlimit="10" stroke-dasharray="" stroke-dashoffset="0" font-family="Sans Serif" font-weight="normal" text-anchor="start" style="mix-blend-mode: normal"><tspan x="0" dy="0">I</tspan></text></g></g></svg>