<svg version="1.1" xmlns="http://www.w3.org/2000/svg" xmlns:xlink="http://www.w3.org/1999/xlink" width="94.00001" height="94" viewBox="0,0,94.00001,94"><g transform="translate(-192.99999,-133)"><g data-paper-data="{&quot;isPaintingLayer&quot;:true}" fill-rule="nonzero" stroke-linecap="butt" stroke-linejoin="miter" stroke-miterlimit="10" stroke-dasharray="" stroke-dashoffset="0" style="mix-blend-mode: normal"><path d="M195,225.33333c0,0 -2,-0.83142 -2,-5c0,-19.407 0,-71.02046 0,-79.33333c0,-2.03454 1.66667,-5.33333 1.66667,-5.33333c0,0 3.55297,-2.66667 6.16667,-2.66667c9.08539,0 58.86646,0 78.66667,0c4.66561,0 5.16667,1.33333 5.16667,1.33333c0,0 2.33333,3.13972 2.33333,7.66667c0,10.90538 0,56.943 0,76.33333c0,5.34616 -3,6 -3,6c0,0 -0.52363,2.66667 -6.16667,2.66667c-20.20227,0 -67.56824,0 -77.66667,0c-3.71151,0 -5.16667,-1.66667 -5.16667,-1.66667z" fill="#4831a3" stroke="#000000" stroke-width="0"/><text transform="translate(199.46355,171.50826) scale(0.69595,0.69595)" font-size="40" xml:space="preserve" fill="#e4e2e2" fill-rule="nonzero" stroke="none" stroke-width="1" stroke-linecap="butt" stroke-linejoin="miter" stroke-miterlimit="10" stroke-dasharray="" stroke-dashoffset="0" font-family="Pixel" font-weight="normal" text-anchor="start" style="mix-blend-mode: normal"><tspan x="0" dy="0">Clear</tspan><tspan x="0" dy="46.150000000000006px">chat</tspan></text></g></g></svg>